<svg width="9" height="9" viewBox="0 0 9 9" fill="none" xmlns="http://www.w3.org/2000/svg">
<path d="M4.125 6.75211C4.23958 6.75211 4.33825 6.7111 4.421 6.62909C4.50376 6.54708 4.54514 6.4493 4.54514 6.33574C4.54514 6.22218 4.50376 6.12439 4.421 6.04237C4.33825 5.96036 4.23958 5.91935 4.125 5.91935C4.01042 5.91935 3.91175 5.96036 3.829 6.04237C3.74624 6.12439 3.70486 6.22218 3.70486 6.33574C3.70486 6.4493 3.74624 6.54708 3.829 6.62909C3.91175 6.7111 4.01042 6.75211 4.125 6.75211ZM3.74306 5.05631H4.50694V2.1568H3.74306V5.05631ZM2.40625 8.57661L0 6.19189V2.78515L2.40625 0.400436H5.84375L8.25 2.78515V6.19189L5.84375 8.57661H2.40625Z" fill="#D31D1D"/>
</svg>
