<svg width="10" height="8" viewBox="0 0 10 8" fill="none" xmlns="http://www.w3.org/2000/svg">
<path d="M2.1524 7.32887C1.77807 7.32887 1.45959 7.20368 1.19697 6.95331C0.934337 6.70293 0.803023 6.39891 0.803023 6.04123H0V1.1149C0 0.919582 0.075125 0.750188 0.225375 0.606717C0.375625 0.463246 0.553023 0.39151 0.757568 0.39151H7.26515V2.1783H8.51515L10 4.06636V6.04123H9.15909C9.15909 6.39891 9.02808 6.70293 8.76605 6.95331C8.50401 7.20368 8.18583 7.32887 7.8115 7.32887C7.43717 7.32887 7.11869 7.20368 6.85607 6.95331C6.59344 6.70293 6.46213 6.39891 6.46213 6.04123H3.5C3.5 6.39811 3.36898 6.70193 3.10694 6.95271C2.84491 7.20348 2.52673 7.32887 2.1524 7.32887ZM2.15151 6.60548C2.31566 6.60548 2.45518 6.55062 2.57008 6.44091C2.68497 6.33119 2.74242 6.19796 2.74242 6.04123C2.74242 5.88449 2.68497 5.75127 2.57008 5.64155C2.45518 5.53183 2.31566 5.47697 2.15151 5.47697C1.98737 5.47697 1.84784 5.53183 1.73294 5.64155C1.61805 5.75127 1.5606 5.88449 1.5606 6.04123C1.5606 6.19796 1.61805 6.33119 1.73294 6.44091C1.84784 6.55062 1.98737 6.60548 2.15151 6.60548ZM7.81061 6.60548C7.97475 6.60548 8.11427 6.55062 8.22917 6.44091C8.34407 6.33119 8.40152 6.19796 8.40152 6.04123C8.40152 5.88449 8.34407 5.75127 8.22917 5.64155C8.11427 5.53183 7.97475 5.47697 7.81061 5.47697C7.64647 5.47697 7.50695 5.53183 7.39205 5.64155C7.27714 5.75127 7.21969 5.88449 7.21969 6.04123C7.21969 6.19796 7.27714 6.33119 7.39205 6.44091C7.50695 6.55062 7.64647 6.60548 7.81061 6.60548ZM7.26515 4.40636H9.31818L8.13636 2.90169H7.26515V4.40636Z" fill="#233CA1"/>
</svg>
