<svg width="11" height="4" viewBox="0 0 11 4" fill="none" xmlns="http://www.w3.org/2000/svg">
<path d="M10.3755 3.94829C9.94328 2.88285 9.25455 2.03088 8.3093 1.3924C7.36404 0.75392 6.31211 0.434618 5.15352 0.434496C4.3206 0.434408 3.53161 0.605706 2.78655 0.948391C2.04149 1.29107 1.4009 1.77657 0.864764 2.40489L0.864982 0.382629L0.000366211 0.382538L-1.73155e-05 3.9472L3.59681 3.94758L3.59691 3.09069L1.4094 3.09045C1.86772 2.5221 2.42184 2.08015 3.07179 1.76459C3.72174 1.44904 4.41274 1.29131 5.14479 1.29139C6.06129 1.29148 6.90355 1.53007 7.67157 2.00714C8.4396 2.48423 9.02531 3.13125 9.42871 3.94819L10.3755 3.94829Z" fill="#FF8C00"/>
</svg>
